<mxfile host="app.diagrams.net" modified="2023-04-22T05:20:15.541Z" agent="Mozilla/5.0 (Windows NT 10.0; Win64; x64; rv:109.0) Gecko/20100101 Firefox/112.0" etag="pnnxOxh3IoAU0YVcBTcQ" version="21.2.1" type="github">
  <diagram name="Page-1" id="e56a1550-8fbb-45ad-956c-1786394a9013">
    <mxGraphModel dx="1109" dy="455" grid="1" gridSize="10" guides="1" tooltips="1" connect="1" arrows="1" fold="1" page="1" pageScale="1" pageWidth="1100" pageHeight="850" background="none" math="0" shadow="0">
      <root>
        <mxCell id="0" />
        <mxCell id="1" parent="0" />
        <mxCell id="TGvFaR9q3PAZb7dorxEp-42" value="NominationForm" style="swimlane;html=1;fontStyle=0;childLayout=stackLayout;horizontal=1;startSize=26;fillColor=#e0e0e0;horizontalStack=0;resizeParent=1;resizeLast=0;collapsible=1;marginBottom=0;swimlaneFillColor=#ffffff;align=center;rounded=0;shadow=0;comic=0;labelBackgroundColor=none;strokeWidth=1;fontFamily=Verdana;fontSize=14" parent="1" vertex="1">
          <mxGeometry x="360" y="80" width="290" height="300" as="geometry" />
        </mxCell>
        <mxCell id="TGvFaR9q3PAZb7dorxEp-43" value="&lt;div&gt;companyID&lt;/div&gt;&lt;div&gt;personID&lt;br&gt;&lt;/div&gt;" style="shape=partialRectangle;top=0;left=0;right=0;bottom=1;html=1;align=left;verticalAlign=middle;fillColor=none;spacingLeft=60;spacingRight=4;whiteSpace=wrap;overflow=hidden;rotatable=0;points=[[0,0.5],[1,0.5]];portConstraint=eastwest;dropTarget=0;fontStyle=5;" parent="TGvFaR9q3PAZb7dorxEp-42" vertex="1">
          <mxGeometry y="26" width="290" height="44" as="geometry" />
        </mxCell>
        <mxCell id="TGvFaR9q3PAZb7dorxEp-44" value="&lt;div&gt;PK,FK1&lt;/div&gt;&lt;div&gt;PK,FK2&lt;/div&gt;" style="shape=partialRectangle;fontStyle=1;top=0;left=0;bottom=0;html=1;fillColor=none;align=left;verticalAlign=middle;spacingLeft=4;spacingRight=4;whiteSpace=wrap;overflow=hidden;rotatable=0;points=[];portConstraint=eastwest;part=1;" parent="TGvFaR9q3PAZb7dorxEp-43" vertex="1" connectable="0">
          <mxGeometry width="56" height="44" as="geometry" />
        </mxCell>
        <mxCell id="TGvFaR9q3PAZb7dorxEp-45" value="&lt;div&gt;&lt;div&gt;&lt;div&gt;&lt;b&gt;principalOfficerIDs[]&lt;/b&gt;&lt;/div&gt;&lt;b&gt;principalDirectorIDs[]&lt;/b&gt;&lt;/div&gt;&lt;/div&gt;&lt;div&gt;&lt;b&gt;nominationCEOExactTitle&lt;/b&gt;&lt;/div&gt;&lt;div&gt;&lt;b&gt;nominationCEOPhoneOrEmail&lt;/b&gt;&lt;/div&gt;&lt;div&gt;&lt;b&gt;nominationRevenueByYear[]&lt;/b&gt;&lt;/div&gt;&lt;div&gt;&lt;b&gt;nominationFiscalYearEndMonth&lt;/b&gt;&lt;/div&gt;&lt;div&gt;&lt;b&gt;nominationPeriodEndR&amp;amp;DExpenditures&lt;/b&gt;&lt;/div&gt;&lt;div&gt;nominationReferralType&lt;/div&gt;&lt;div&gt;&lt;b&gt;receivedCompanyDescription&lt;/b&gt;&lt;/div&gt;&lt;div&gt;&lt;b&gt;receivedPeriodStartVerification&lt;/b&gt;&lt;/div&gt;&lt;div&gt;&lt;b&gt;receivedPeriodEndVerification&lt;/b&gt;&lt;/div&gt;&lt;div&gt;&lt;b&gt;receivedCEOBiography&lt;/b&gt;&lt;/div&gt;&lt;div&gt;&lt;b&gt;receivedCEOPhoto&lt;/b&gt;&lt;/div&gt;&lt;div&gt;&lt;b&gt;receivedCEOSignature&lt;/b&gt;&lt;/div&gt;&lt;div&gt;&lt;b&gt;nominationCEOSignatureDate&lt;/b&gt;&lt;br&gt;&lt;/div&gt;" style="shape=partialRectangle;top=0;left=0;right=0;bottom=0;html=1;align=left;verticalAlign=top;fillColor=none;spacingLeft=60;spacingRight=4;whiteSpace=wrap;overflow=hidden;rotatable=0;points=[[0,0.5],[1,0.5]];portConstraint=eastwest;dropTarget=0;" parent="TGvFaR9q3PAZb7dorxEp-42" vertex="1">
          <mxGeometry y="70" width="290" height="230" as="geometry" />
        </mxCell>
        <mxCell id="TGvFaR9q3PAZb7dorxEp-48" value="&lt;div&gt;&lt;div&gt;&lt;b&gt;FK3,U1&lt;/b&gt;&lt;/div&gt;&lt;div&gt;&lt;b&gt;FK4,U2&lt;br&gt;&lt;/b&gt;&lt;/div&gt;&lt;/div&gt;" style="shape=partialRectangle;top=0;left=0;bottom=0;html=1;fillColor=none;align=left;verticalAlign=top;spacingLeft=4;spacingRight=4;whiteSpace=wrap;overflow=hidden;rotatable=0;points=[];portConstraint=eastwest;part=1;" parent="1" vertex="1" connectable="0">
          <mxGeometry x="360" y="151" width="56" height="229" as="geometry" />
        </mxCell>
        <mxCell id="TGvFaR9q3PAZb7dorxEp-49" value="Fast50Iteration" style="swimlane;html=1;fontStyle=0;childLayout=stackLayout;horizontal=1;startSize=26;fillColor=#e0e0e0;horizontalStack=0;resizeParent=1;resizeLast=0;collapsible=1;marginBottom=0;swimlaneFillColor=#ffffff;align=center;rounded=0;shadow=0;comic=0;labelBackgroundColor=none;strokeWidth=1;fontFamily=Verdana;fontSize=14" parent="1" vertex="1">
          <mxGeometry x="40" y="120" width="220" height="210" as="geometry" />
        </mxCell>
        <mxCell id="TGvFaR9q3PAZb7dorxEp-50" value="&lt;div&gt;returnDeadline&lt;/div&gt;&lt;div&gt;companyID&lt;/div&gt;&lt;div&gt;personID&lt;br&gt;&lt;/div&gt;" style="shape=partialRectangle;top=0;left=0;right=0;bottom=1;html=1;align=left;verticalAlign=middle;fillColor=none;spacingLeft=60;spacingRight=4;whiteSpace=wrap;overflow=hidden;rotatable=0;points=[[0,0.5],[1,0.5]];portConstraint=eastwest;dropTarget=0;fontStyle=5;" parent="TGvFaR9q3PAZb7dorxEp-49" vertex="1">
          <mxGeometry y="26" width="220" height="54" as="geometry" />
        </mxCell>
        <mxCell id="TGvFaR9q3PAZb7dorxEp-51" value="&lt;div&gt;PK&lt;/div&gt;&lt;div&gt;FK1&lt;/div&gt;&lt;div&gt;FK2&lt;/div&gt;" style="shape=partialRectangle;fontStyle=1;top=0;left=0;bottom=0;html=1;fillColor=none;align=left;verticalAlign=middle;spacingLeft=4;spacingRight=4;whiteSpace=wrap;overflow=hidden;rotatable=0;points=[];portConstraint=eastwest;part=1;" parent="TGvFaR9q3PAZb7dorxEp-50" vertex="1" connectable="0">
          <mxGeometry width="50" height="54" as="geometry" />
        </mxCell>
        <mxCell id="TGvFaR9q3PAZb7dorxEp-52" value="&lt;div&gt;&lt;b&gt;periodStartYear&lt;/b&gt;&lt;/div&gt;&lt;div&gt;&lt;b&gt;periodStartRevenue&lt;br&gt;&lt;/b&gt;&lt;/div&gt;&lt;div&gt;&lt;b&gt;periodEndYear&lt;/b&gt;&lt;/div&gt;&lt;div&gt;&lt;b&gt;periodEndRevenue&lt;br&gt;&lt;/b&gt;&lt;/div&gt;&lt;div&gt;&lt;b&gt;submissionAddress&lt;br&gt;&lt;/b&gt;&lt;/div&gt;&lt;div&gt;&lt;b&gt;submissionPhoneNumber&lt;/b&gt;&lt;/div&gt;&lt;div&gt;&lt;b&gt;submissionFaxNumber&lt;/b&gt;&lt;/div&gt;&lt;div&gt;&lt;b&gt;submissionEmailAddress&lt;br&gt;&lt;/b&gt;&lt;/div&gt;" style="shape=partialRectangle;top=0;left=0;right=0;bottom=0;html=1;align=left;verticalAlign=top;fillColor=none;spacingLeft=60;spacingRight=4;whiteSpace=wrap;overflow=hidden;rotatable=0;points=[[0,0.5],[1,0.5]];portConstraint=eastwest;dropTarget=0;" parent="TGvFaR9q3PAZb7dorxEp-49" vertex="1">
          <mxGeometry y="80" width="220" height="130" as="geometry" />
        </mxCell>
        <mxCell id="TGvFaR9q3PAZb7dorxEp-53" value="" style="shape=partialRectangle;top=0;left=0;bottom=0;html=1;fillColor=none;align=left;verticalAlign=top;spacingLeft=4;spacingRight=4;whiteSpace=wrap;overflow=hidden;rotatable=0;points=[];portConstraint=eastwest;part=1;" parent="1" vertex="1" connectable="0">
          <mxGeometry x="40" y="200" width="50" height="130" as="geometry" />
        </mxCell>
        <mxCell id="TGvFaR9q3PAZb7dorxEp-54" value="Company" style="swimlane;html=1;fontStyle=0;childLayout=stackLayout;horizontal=1;startSize=26;fillColor=#e0e0e0;horizontalStack=0;resizeParent=1;resizeLast=0;collapsible=1;marginBottom=0;swimlaneFillColor=#ffffff;align=center;rounded=0;shadow=0;comic=0;labelBackgroundColor=none;strokeWidth=1;fontFamily=Verdana;fontSize=14;swimlaneLine=1;" parent="1" vertex="1">
          <mxGeometry x="760" y="40" width="190" height="200" as="geometry" />
        </mxCell>
        <mxCell id="TGvFaR9q3PAZb7dorxEp-55" value="companyID" style="shape=partialRectangle;top=0;left=0;right=0;bottom=1;html=1;align=left;verticalAlign=middle;fillColor=none;spacingLeft=34;spacingRight=4;whiteSpace=wrap;overflow=hidden;rotatable=0;points=[[0,0.5],[1,0.5]];portConstraint=eastwest;dropTarget=0;fontStyle=5;" parent="TGvFaR9q3PAZb7dorxEp-54" vertex="1">
          <mxGeometry y="26" width="190" height="30" as="geometry" />
        </mxCell>
        <mxCell id="TGvFaR9q3PAZb7dorxEp-56" value="&lt;b&gt;PK&lt;/b&gt;" style="shape=partialRectangle;top=0;left=0;bottom=0;html=1;fillColor=none;align=left;verticalAlign=middle;spacingLeft=4;spacingRight=4;whiteSpace=wrap;overflow=hidden;rotatable=0;points=[];portConstraint=eastwest;part=1;" parent="TGvFaR9q3PAZb7dorxEp-55" vertex="1" connectable="0">
          <mxGeometry width="30" height="30" as="geometry" />
        </mxCell>
        <mxCell id="TGvFaR9q3PAZb7dorxEp-57" value="&lt;div&gt;&lt;b&gt;companyName&lt;/b&gt;&lt;/div&gt;&lt;div&gt;&lt;b&gt;companyAddressStreet&lt;/b&gt;&lt;/div&gt;&lt;div&gt;&lt;b&gt;companyAddressCity&lt;/b&gt;&lt;/div&gt;&lt;div&gt;&lt;b&gt;companyAddressStateZip&lt;/b&gt;&lt;/div&gt;&lt;div&gt;&lt;b&gt;companyPhoneOrFax&lt;/b&gt;&lt;/div&gt;&lt;div&gt;&lt;b&gt;companyWebSite&lt;/b&gt;&lt;/div&gt;&lt;div&gt;companyPublicTicker&lt;/div&gt;&lt;div&gt;companyPublicExchange&lt;/div&gt;&lt;div&gt;companyPublicDate&lt;/div&gt;" style="shape=partialRectangle;top=0;left=0;right=0;bottom=0;html=1;align=left;verticalAlign=top;fillColor=none;spacingLeft=34;spacingRight=4;whiteSpace=wrap;overflow=hidden;rotatable=0;points=[[0,0.5],[1,0.5]];portConstraint=eastwest;dropTarget=0;" parent="TGvFaR9q3PAZb7dorxEp-54" vertex="1">
          <mxGeometry y="56" width="190" height="144" as="geometry" />
        </mxCell>
        <mxCell id="TGvFaR9q3PAZb7dorxEp-58" value="&lt;div&gt;&lt;b&gt;&lt;br&gt;&lt;/b&gt;&lt;/div&gt;&lt;div&gt;&lt;b&gt;U1&lt;br&gt;&lt;/b&gt;&lt;/div&gt;&lt;div&gt;&lt;b&gt;U1&lt;br&gt;&lt;/b&gt;&lt;/div&gt;&lt;div&gt;&lt;b&gt;U1&lt;br&gt;&lt;/b&gt;&lt;/div&gt;&lt;div&gt;&lt;b&gt;U2&lt;br&gt;&lt;/b&gt;&lt;/div&gt;&lt;div&gt;&lt;b&gt;U3&lt;br&gt;&lt;/b&gt;&lt;/div&gt;" style="shape=partialRectangle;top=0;left=0;bottom=0;html=1;fillColor=none;align=left;verticalAlign=top;spacingLeft=4;spacingRight=4;whiteSpace=wrap;overflow=hidden;rotatable=0;points=[];portConstraint=eastwest;part=1;" parent="TGvFaR9q3PAZb7dorxEp-57" vertex="1" connectable="0">
          <mxGeometry width="30" height="144" as="geometry" />
        </mxCell>
        <mxCell id="TGvFaR9q3PAZb7dorxEp-59" value="Person" style="swimlane;html=1;fontStyle=0;childLayout=stackLayout;horizontal=1;startSize=26;fillColor=#e0e0e0;horizontalStack=0;resizeParent=1;resizeLast=0;collapsible=1;marginBottom=0;swimlaneFillColor=#ffffff;align=center;rounded=0;shadow=0;comic=0;labelBackgroundColor=none;strokeWidth=1;fontFamily=Verdana;fontSize=14;swimlaneLine=1;" parent="1" vertex="1">
          <mxGeometry x="760" y="280" width="140" height="130" as="geometry" />
        </mxCell>
        <mxCell id="TGvFaR9q3PAZb7dorxEp-60" value="personID" style="shape=partialRectangle;top=0;left=0;right=0;bottom=1;html=1;align=left;verticalAlign=middle;fillColor=none;spacingLeft=34;spacingRight=4;whiteSpace=wrap;overflow=hidden;rotatable=0;points=[[0,0.5],[1,0.5]];portConstraint=eastwest;dropTarget=0;fontStyle=5;" parent="TGvFaR9q3PAZb7dorxEp-59" vertex="1">
          <mxGeometry y="26" width="140" height="30" as="geometry" />
        </mxCell>
        <mxCell id="TGvFaR9q3PAZb7dorxEp-61" value="&lt;b&gt;PK&lt;/b&gt;" style="shape=partialRectangle;top=0;left=0;bottom=0;html=1;fillColor=none;align=left;verticalAlign=middle;spacingLeft=4;spacingRight=4;whiteSpace=wrap;overflow=hidden;rotatable=0;points=[];portConstraint=eastwest;part=1;" parent="TGvFaR9q3PAZb7dorxEp-60" vertex="1" connectable="0">
          <mxGeometry width="30" height="30" as="geometry" />
        </mxCell>
        <mxCell id="TGvFaR9q3PAZb7dorxEp-62" value="&lt;div&gt;&lt;b&gt;personRole&lt;/b&gt;&lt;/div&gt;&lt;div&gt;&lt;b&gt;personHonourific&lt;/b&gt;&lt;/div&gt;&lt;div&gt;&lt;b&gt;personName&lt;/b&gt;&lt;/div&gt;&lt;div&gt;outdatedInfo&lt;br&gt;&lt;/div&gt;" style="shape=partialRectangle;top=0;left=0;right=0;bottom=0;html=1;align=left;verticalAlign=top;fillColor=none;spacingLeft=34;spacingRight=4;whiteSpace=wrap;overflow=hidden;rotatable=0;points=[[0,0.5],[1,0.5]];portConstraint=eastwest;dropTarget=0;" parent="TGvFaR9q3PAZb7dorxEp-59" vertex="1">
          <mxGeometry y="56" width="140" height="74" as="geometry" />
        </mxCell>
        <mxCell id="TGvFaR9q3PAZb7dorxEp-63" value="" style="shape=partialRectangle;top=0;left=0;bottom=0;html=1;fillColor=none;align=left;verticalAlign=top;spacingLeft=4;spacingRight=4;whiteSpace=wrap;overflow=hidden;rotatable=0;points=[];portConstraint=eastwest;part=1;" parent="TGvFaR9q3PAZb7dorxEp-62" vertex="1" connectable="0">
          <mxGeometry width="30" height="74" as="geometry" />
        </mxCell>
        <mxCell id="TGvFaR9q3PAZb7dorxEp-79" style="rounded=0;orthogonalLoop=1;jettySize=auto;html=1;entryX=1;entryY=0.5;entryDx=0;entryDy=0;" parent="1" target="TGvFaR9q3PAZb7dorxEp-50" edge="1">
          <mxGeometry relative="1" as="geometry">
            <mxPoint x="360" y="120" as="sourcePoint" />
          </mxGeometry>
        </mxCell>
        <mxCell id="TGvFaR9q3PAZb7dorxEp-80" style="rounded=0;orthogonalLoop=1;jettySize=auto;html=1;entryX=1.005;entryY=0.746;entryDx=0;entryDy=0;exitX=-0.006;exitY=0.326;exitDx=0;exitDy=0;exitPerimeter=0;entryPerimeter=0;" parent="1" target="TGvFaR9q3PAZb7dorxEp-50" edge="1">
          <mxGeometry relative="1" as="geometry">
            <mxPoint x="361" y="136" as="sourcePoint" />
            <mxPoint x="263" y="186" as="targetPoint" />
          </mxGeometry>
        </mxCell>
        <mxCell id="TGvFaR9q3PAZb7dorxEp-81" style="edgeStyle=none;rounded=0;orthogonalLoop=1;jettySize=auto;html=1;exitX=0;exitY=0.5;exitDx=0;exitDy=0;" parent="1" source="TGvFaR9q3PAZb7dorxEp-55" edge="1">
          <mxGeometry relative="1" as="geometry">
            <mxPoint x="650" y="120" as="targetPoint" />
          </mxGeometry>
        </mxCell>
        <mxCell id="TGvFaR9q3PAZb7dorxEp-83" style="edgeStyle=none;rounded=0;orthogonalLoop=1;jettySize=auto;html=1;exitX=0;exitY=0.5;exitDx=0;exitDy=0;entryX=1;entryY=0.679;entryDx=0;entryDy=0;entryPerimeter=0;" parent="1" source="TGvFaR9q3PAZb7dorxEp-60" target="TGvFaR9q3PAZb7dorxEp-43" edge="1">
          <mxGeometry relative="1" as="geometry">
            <mxPoint x="650" y="130" as="targetPoint" />
          </mxGeometry>
        </mxCell>
        <mxCell id="TGvFaR9q3PAZb7dorxEp-84" style="edgeStyle=none;rounded=0;orthogonalLoop=1;jettySize=auto;html=1;exitX=0;exitY=0.5;exitDx=0;exitDy=0;entryX=0.998;entryY=0.042;entryDx=0;entryDy=0;entryPerimeter=0;" parent="1" target="TGvFaR9q3PAZb7dorxEp-45" edge="1">
          <mxGeometry relative="1" as="geometry">
            <mxPoint x="760" y="322.5" as="sourcePoint" />
            <mxPoint x="650" y="170" as="targetPoint" />
          </mxGeometry>
        </mxCell>
        <mxCell id="TGvFaR9q3PAZb7dorxEp-85" style="edgeStyle=none;rounded=0;orthogonalLoop=1;jettySize=auto;html=1;exitX=0;exitY=0.5;exitDx=0;exitDy=0;entryX=0.998;entryY=0.119;entryDx=0;entryDy=0;entryPerimeter=0;" parent="1" source="TGvFaR9q3PAZb7dorxEp-60" target="TGvFaR9q3PAZb7dorxEp-45" edge="1">
          <mxGeometry relative="1" as="geometry">
            <mxPoint x="749" y="359.5" as="sourcePoint" />
            <mxPoint x="650" y="180" as="targetPoint" />
          </mxGeometry>
        </mxCell>
        <mxCell id="TGvFaR9q3PAZb7dorxEp-88" value="has / is of" style="edgeLabel;html=1;align=center;verticalAlign=middle;resizable=0;points=[];rotation=0;" parent="1" vertex="1" connectable="0">
          <mxGeometry x="313.9258947495648" y="170.00104431030155" as="geometry">
            <mxPoint x="1" y="-21" as="offset" />
          </mxGeometry>
        </mxCell>
        <mxCell id="TGvFaR9q3PAZb7dorxEp-89" value="has / is of" style="edgeLabel;html=1;align=center;verticalAlign=middle;resizable=0;points=[];rotation=-20;" parent="1" vertex="1" connectable="0">
          <mxGeometry x="709.9958947495647" y="90.00104431030155" as="geometry" />
        </mxCell>
        <mxCell id="TGvFaR9q3PAZb7dorxEp-90" value="has / is of" style="edgeLabel;html=1;align=center;verticalAlign=middle;resizable=0;points=[];rotation=0;" parent="1" vertex="1" connectable="0">
          <mxGeometry x="699.9958947495647" y="230.00104431030155" as="geometry" />
        </mxCell>
      </root>
    </mxGraphModel>
  </diagram>
</mxfile>
